PathFileType	4	(X/Y/Z)	6_coords_data.trc
DataRate	CameraRate	NumFrames	NumMarkers	Units	OrigDataRate	OrigDataStartFrame	OrigNumFrames
30.0	30.0	6	21	m	30.0	49	68
Frame#	Time	THUMB_TIP	THUMB_IP	THUMB_MCP	THUMB_CMC	INDEX_TIP	INDEX_DIP	INDEX_PIP	INDEX_MCP	MIDDLE_TIP	MIDDLE_DIP	MIDDLE_PIP	MIDDLE_MCP	RING_TIP	RING_DIP	RING_PIP	RING_MCP	PINKY_TIP	PINKY_DIP	PINKY_PIP	PINKY_MCP	WRIST
X1	Y1	Z1	X2	Y2	Z2	X3	Y3	Z3	X4	Y4	Z4	X5	Y5	Z5	X6	Y6	Z6	X7	Y7	Z7	X8	Y8	Z8	X9	Y9	Z9	X10	Y10	Z10	X11	Y11	Z11	X12	Y12	Z12	X13	Y13	Z13	X14	Y14	Z14	X15	Y15	Z15	X16	Y16	Z16	X17	Y17	Z17	X18	Y18	Z18	X19	Y19	Z19	X20	Y20	Z20	X21	Y21	Z21
47	1.599999999999993	0.49015341709776195	-0.04163589797706979	-0.17122461420093477	0.4903685446709126	-0.03973118956275523	-0.14832645257202423	0.47439701640661924	-0.03475050413419911	-0.12207910875279854	0.47278702758459745	-0.02971452984819023	-0.07778535186784213	0.568357598097847	0.020416216691913736	-0.17157808657341622	0.553097752315686	0.018274484627869403	-0.16206230544570477	0.5326096725100508	0.014288927530848872	-0.14804932027107814	0.5000763890594537	0.006603362650556943	-0.12166459638785482	0.5918262249807867	0.03006249442989173	-0.14475204221000917	0.5752198299740272	0.028937064449657268	-0.13761334119098215	0.5488918238941504	0.026597207153455704	-0.125334468535425	0.5113483219698597	0.017708962315036825	-0.10280376752651055	0.6026755669509979	0.02442888955660405	-0.11142606942024058	0.5856585061794409	0.02241673924354315	-0.10582509684266242	0.5621226449855592	0.019751135151339305	-0.09813498815123539	0.5243562552474518	0.01600272274293979	-0.08419332237680435	0.6016334643502008	-0.004621027755765894	-0.07283628414911139	0.5848006672547531	-0.0026406313715811036	-0.0704415039702648	0.5642803620780354	0.0007589536705678857	-0.06758284764332279	0.5288874085567464	0.006636536529913695	-0.0638846978665554	0.4622830810018608	-0.023011742144276925	-0.05198982011943101
48	1.6333333333333262	0.4983327263155567	-0.04040819883460611	-0.16907019356825725	0.4962676129030903	-0.0384470202709144	-0.14626911716307484	0.4778296259738193	-0.034702294288353586	-0.12147319682702828	0.4738638407589413	-0.029699394855741468	-0.07732420425758652	0.5686789016823538	0.018445993378140346	-0.16984860139719365	0.5529512146596076	0.01742365659865308	-0.16092701586412558	0.5317960252266603	0.01476405432015826	-0.1476080703812303	0.49849612894361806	0.007761812039618676	-0.122001008765667	0.5906224381034824	0.025652630938467258	-0.14529633064020786	0.5739609072686344	0.026272677199140615	-0.1382246312069717	0.5475032905580531	0.026211819168568296	-0.12600168703234307	0.509741849236515	0.019077017055526224	-0.10321317964094573	0.6008441431089884	0.02068546170920038	-0.11402562824384982	0.5838912904732639	0.02021900327152637	-0.1079114476742776	0.5604269981849438	0.019447313910234354	-0.0996041339124202	0.5228774966089931	0.01786482140097967	-0.08469603266323877	0.5994804289971688	-0.005383148815846672	-0.07818301268962266	0.5830541335908735	-0.0023128701906686144	-0.07447488534702795	0.5629607048283941	0.0020505273566752136	-0.07022907548187887	0.5279527425193933	0.008462478737563783	-0.0643798955854577	0.4622830810018609	-0.023011742144276925	-0.05198982011943096
49	1.6666666666666594	0.5062369066504683	-0.03916387240584851	-0.16631386703716533	0.501924879397566	-0.03721704393443215	-0.14382795411655852	0.4812660059921898	-0.034730716307377674	-0.1206795389537102	0.474933191155112	-0.029678675542884392	-0.076813124234096	0.5688085294122454	0.01666536652786732	-0.16817360846823842	0.5527184014901669	0.016647225140408617	-0.15986051913025995	0.5310277306941702	0.01516308753580553	-0.14723823847301326	0.49712544719425666	0.008642568268895756	-0.1223032410601127	0.5893060126049715	0.022010791587659062	-0.14544243684949487	0.5726861516679286	0.02408082502595854	-0.13855076187183693	0.5462019388218368	0.02590374508376081	-0.12652275362500862	0.5082536910272741	0.02018630137091193	-0.10364505164878551	0.5988511197903348	0.017542927430128086	-0.11608589266319258	0.5820515231823317	0.018398921338800833	-0.10960200276308746	0.5587529772540227	0.019243435956532884	-0.10084731649304257	0.521475726584298	0.01948620564259551	-0.08519265330963141	0.5972493286110531	-0.005589134739428903	-0.08251874964235789	0.5812994916916454	-0.0016058198092332443	-0.07775053148342481	0.5616471717070822	0.003506383719125483	-0.07241539199987065	0.5270151007140198	0.010167386489436936	-0.06485667836424522	0.4622830810018609	-0.023011742144276925	-0.05198982011943096
50	1.6999999999999926	0.5135869600824726	-0.037920891973560855	-0.16309428464394932	0.5071193343109881	-0.036067591684645905	-0.14112305129397243	0.4845513494419007	-0.03482473649208362	-0.11972301928654394	0.47600414435170124	-0.029631970786515693	-0.07625037881609231	0.5689478441056591	0.015093015430751588	-0.1665506752351767	0.5525799668267375	0.0159343566856871	-0.15884452585465567	0.5304597683570975	0.015434511955770613	-0.1469089987230325	0.4960822660907007	0.009202294809005362	-0.12255775848029646	0.5881924619699851	0.01920161682997168	-0.14512392954345446	0.5716356897763367	0.022402358399823963	-0.13851873855979235	0.5451446722021842	0.02567603422282605	-0.12681751706407496	0.506983288063602	0.02102074836537371	-0.10405383996188064	0.5970159643818405	0.01512217688760742	-0.11750134038598053	0.5803931558344019	0.01705186803746339	-0.11079622830180391	0.5572843180606514	0.019199723935063084	-0.10176581796840095	0.5202523453526728	0.02081695307877629	-0.08561842185471549	0.5952597974068635	-0.005188128765586053	-0.08562708112877268	0.5797640871942203	-0.0004807402504500846	-0.0800842065700848	0.5604823002141259	0.005157183292245571	-0.07398186865900658	0.5261134399581028	0.011728199780688398	-0.06523620470419064	0.4622830810018609	-0.023011742144276925	-0.051989820119430985
51	1.7333333333333258	0.5203145296985001	-0.03667679713414129	-0.15957357925395368	0.5118676558240347	-0.034949021002411595	-0.13827416350169652	0.48772260884048035	-0.03494047260254807	-0.11863143881577742	0.47703307513066306	-0.029563038997110436	-0.07565810898335937	0.5692429455564733	0.014004415163843542	-0.16483129726778076	0.5526463819116046	0.015515084084667619	-0.15774102543988286	0.5301666328881849	0.01575749636410484	-0.146488827737619	0.495376531066858	0.009590583781626694	-0.12271375468911316	0.5874191068611991	0.017365338536913688	-0.14429987893151283	0.5708940273075338	0.021361461811932547	-0.13805866554661028	0.5443566872603672	0.02564470177181999	-0.12679665024440634	0.5059163723782459	0.021712454962101613	-0.10436837461316728	0.5954871332677779	0.01350357789540646	-0.11813101843827961	0.579002888461903	0.016251883395824396	-0.11136962138912204	0.5560410569682177	0.019402590552300092	-0.10225878619855094	0.5191544514174599	0.022014175600386543	-0.08591012299694889	0.5936150527661892	-0.004365698043238386	-0.08757854142233223	0.5785088051415184	0.0009381051319168332	-0.08152288666158702	0.5594996852300581	0.006946484935341779	-0.07493769483981597	0.525256582151509	0.01317045641824488	-0.06547431692641284	0.462283081001861	-0.023011742144276925	-0.05198982011943096
52	1.7666666666666588	0.526482543233268	-0.035496000342223	-0.15581963542663257	0.516229026272202	-0.03393392940953299	-0.1353153596693576	0.49078985511368345	-0.03506291993906696	-0.11741580796681994	0.4780143453410064	-0.02947096596812493	-0.07504357176391108	0.569721430753836	0.013526315482362716	-0.16293517739454194	0.5529201812072027	0.015517655252424545	-0.15647355379114902	0.5301115604688073	0.016243765328977644	-0.14592606986517076	0.4949343181632275	0.009903003215748885	-0.1227745590376248	0.5869446959039298	0.01640332908556541	-0.1430322407439072	0.5704042056167286	0.020931935668811352	-0.13720953488896448	0.543758571562439	0.025847562863772433	-0.12647378409430426	0.5049733777013907	0.02238297371794229	-0.1045682304557517	0.5942540762941967	0.01253367897751334	-0.11797895782578269	0.5778576328496112	0.015945882878271034	-0.1113071134849602	0.5549720508905512	0.019861022746337498	-0.10230145986022932	0.5181081991870172	0.023212159306990277	-0.0860365542247295	0.5922417881774568	-0.0032755699793476367	-0.0886360563982447	0.5774476442576058	0.002519785986176304	-0.08226839160559143	0.5586332197902134	0.008822626206379747	-0.07540518126935819	0.5244136319229921	0.014568070725352933	-0.06556175074555584	0.462283081001861	-0.023011742144276925	-0.05198982011943101
